<svg xmlns="http://www.w3.org/2000/svg" width="140" height="126.068"><defs><style>.b{fill:#0090ff}.e{opacity:.2}.g{fill:#ebebeb}.h{fill:#e0e0e0}</style></defs><g style="opacity:.5"><path class="b" d="M126.519 23.72c-9.387-8.336-23.369-11.842-35.7-10.7-6.2.574-11.192 3.145-16.846 5.437-7.943 3.213-13.192 1.805-21.3.939-23.543-2.56-34.41 20.185-34.818 37.154-.5 20.644 13.954 39.482 34.3 44.728 13.694 3.531 26.886 3.679 38.876-.765 9.358-3.473 11.694-11.1 14.665-19.878 2.274-6.708 4.3-14.279 9.329-19.55 4.6-4.823 9.329-.762 14.622-3.693 13.45-7.462 4.785-26.647-3.128-33.672Z"/><path d="M183.741 124.76c-9.387-8.336-23.369-11.842-35.7-10.7-6.2.574-11.192 3.145-16.846 5.437-7.943 3.213-13.192 1.805-21.3.939-23.543-2.56-34.41 20.185-34.818 37.154-.5 20.644 13.954 39.482 34.3 44.728 13.694 3.531 26.886 3.679 38.876-.765 9.358-3.473 11.694-11.1 14.665-19.878 2.274-6.708 4.3-14.279 9.329-19.55 4.6-4.823 9.329-.762 14.622-3.693 13.45-7.462 4.785-26.647-3.128-33.672Z" transform="translate(-57.222 -101.04)" style="opacity:.9;fill:#fff"/></g><ellipse cx="70" cy="4.087" rx="70" ry="4.087" style="fill:#f5f5f5" transform="translate(0 117.895)"/><path class="b" d="M105.004 7.557h-83.22l5.477 113.342h83.225Z"/><path class="e" d="M105.004 7.557h-83.22l5.477 113.342h83.225Z"/><path class="b" d="M105.778 7.557H22.553l5.48 113.342h83.225Z"/><path class="e" d="M101.384 11.369H26.358L31.6 115.775l65.238-.087 10.842-9.611Z"/><path d="M174.25 109.85a850.077 850.077 0 0 0 7.564 93.456q-8.917 6.137-17.745 12.275h-56.112A852.275 852.275 0 0 1 98.65 109.85Z" transform="translate(-72.292 -98.485)" style="fill:#fff"/><path class="g" d="M109.522 104.821q-8.918 6.138-17.745 12.275 1.928-8.123 4.018-16.246Z"/><path class="b" d="M46.703 20.918q.213 5.733.5 11.473h-11.47q-.289-5.74-.5-11.473h11.47m1.17-1.209H33.98q.242 6.943.6 13.892h13.9q-.361-6.946-.6-13.892Z"/><path class="h" d="M93.571 25.225H54.284c-.036-.863-.069-1.729-.1-2.592h39.279l.108 2.592Zm-8.304 5.452H54.526c-.04-.866-.083-1.729-.119-2.592h30.742Z"/><path class="b" d="M47.829 43.388q.361 5.74.805 11.481H37.16q-.444-5.74-.805-11.481h11.474m1.134-1.209H35.07q.426 6.95.971 13.9h13.91q-.542-6.946-.975-13.9Z"/><path class="h" d="M69.952 47.704H55.511c-.058-.866-.119-1.729-.173-2.6h14.441c.054.866.112 1.729.173 2.6Zm13.673 0H73.007c-.058-.866-.119-1.729-.173-2.6h10.62c.052.866.11 1.729.171 2.6Zm6.664 5.451H55.908c-.065-.866-.126-1.729-.191-2.6h34.381c.065.87.126 1.733.191 2.6Z"/><path class="b" d="M49.55 65.87q.516 5.74 1.112 11.481H39.189q-.6-5.74-1.112-11.481h11.474m1.1-1.209h-13.9q.614 6.953 1.343 13.9h13.9q-.718-6.95-1.339-13.9Z"/><path class="h" d="M96.922 73.044H57.631l.26 2.592h39.291Zm-9.063-5.455H57.114c.079.863.159 1.729.242 2.592h30.742c-.08-.863-.163-1.718-.239-2.592Z"/><path class="b" d="M51.872 88.351q.672 5.74 1.419 11.477H41.817q-.747-5.733-1.419-11.477h11.474m1.083-1.209H39.048q.794 6.953 1.715 13.9h13.885q-.913-6.943-1.715-13.9Z"/><path class="h" d="M99.083 92.651h-39.29c-.1-.866-.209-1.729-.31-2.6H98.77c.105.881.206 1.744.313 2.6Zm-20.722 5.462H60.476c-.112-.863-.22-1.729-.329-2.592h17.885c.109.863.217 1.729.329 2.592Zm10.679 0h-7.721c-.112-.863-.22-1.729-.329-2.592h7.722c.107.863.23 1.729.328 2.592Z"/><path class="b" d="m41.648 30.753-.509-.809a14.12 14.12 0 0 0-4.163-3.809l.585-1.036a16.427 16.427 0 0 1 4.065 3.491 37.5 37.5 0 0 1 7.87-7.481l.747.975a34.332 34.332 0 0 0-8.087 7.907ZM43.02 53.23l-.531-.809a14.671 14.671 0 0 0-4.26-3.812l.552-1.036a16.968 16.968 0 0 1 4.163 3.495 35.948 35.948 0 0 1 7.668-7.488c.256.325.516.65.773.978a32.957 32.957 0 0 0-7.874 7.91c-.166.253-.329.51-.491.762Zm1.992 22.539-.552-.809a15.243 15.243 0 0 0-4.365-3.809c.173-.361.361-.693.527-1.036a17.723 17.723 0 0 1 4.253 3.494 34.778 34.778 0 0 1 7.466-7.488l.8.978a31.853 31.853 0 0 0-7.665 7.91Z"/><path class="g" d="M81.408 110.868a7.465 7.465 0 0 1-4.441-1.48 6.221 6.221 0 0 0-3.812-1.293 4.832 4.832 0 0 0-3.448 1.293 5.777 5.777 0 0 1-4.018 1.48 7.444 7.444 0 0 1-4.437-1.48 6.2 6.2 0 0 0-3.812-1.293 4.825 4.825 0 0 0-3.448 1.293 5.774 5.774 0 0 1-4.015 1.48 7.474 7.474 0 0 1-4.441-1.48 6.213 6.213 0 0 0-3.812-1.293c-.047-.361-.1-.693-.144-1.04a7.452 7.452 0 0 1 4.437 1.48 6.21 6.21 0 0 0 3.809 1.292 4.832 4.832 0 0 0 3.448-1.292 5.787 5.787 0 0 1 4.022-1.48 7.44 7.44 0 0 1 4.433 1.48 6.222 6.222 0 0 0 3.812 1.292 4.832 4.832 0 0 0 3.448-1.292 5.787 5.787 0 0 1 4.022-1.48 7.452 7.452 0 0 1 4.437 1.48 6.213 6.213 0 0 0 3.812 1.292c.047.348.101.695.148 1.041Z"/><path d="M187.591 88.731a7.828 7.828 0 0 0-7.073-5.383h-6.181a2.35 2.35 0 0 1-2.148-1.444 5.776 5.776 0 0 0-5.26-3.534 5.116 5.116 0 0 0-4.917 3.534A2.087 2.087 0 0 1 160 83.348h-6.177a6.932 6.932 0 0 0-6.553 5.383l-.361 1.289h41.157Z" transform="translate(-103.128 -78.369)" style="fill:#263238"/><path class="b" d="M84.683 12.922H44.175a1.35 1.35 0 0 1-1.332-1.271 1.2 1.2 0 0 1 1.209-1.267H84.56a1.35 1.35 0 0 1 1.332 1.267 1.2 1.2 0 0 1-1.209 1.271Z"/><path class="e" d="M84.683 12.922H44.175a1.35 1.35 0 0 1-1.332-1.271 1.2 1.2 0 0 1 1.209-1.267H84.56a1.35 1.35 0 0 1 1.332 1.267 1.2 1.2 0 0 1-1.209 1.271Z"/></svg>